#!OML:ASF X:\für Bonn\!DataBase\2005_08_10_Bjorn_Final\c3d\bjorn.ASF
:FULLY-SPECIFIED
:DEGREES
188
root -2.35798 18.5562 -2.82087 491.968 94.9805 500.962
lowerback 7.93894 -0.0269662 -9.18702
upperback 17.3483 1.80192 -3.03889
thorax 14.8937 0.487604 1.88577
lowerneck 7.00948 -7.02218 1.37688
upperneck 3.01676 -9.12691 16.1828
head 0.420034 -4.5404 4.75491
rclavicle 4.77083e-015 -2.06736e-014
rhumerus -27.5164 -21.4851 -82.8063
rradius 38.6225
rwrist 6.44107
rhand -10.6984 18.6646
rfingers 7.12502
rthumb 15.311 -10.7487
lclavicle 4.77083e-015 -2.06736e-014
lhumerus 1.48631 -7.00668 77.5392
lradius 64.4626
lwrist -9.76245
lhand -45.6297 -13.1154
lfingers 7.12502
lthumb -18.3895 16.0354
rfemur -44.804 -13.0515 14.1011
rtibia 55.3503
rfoot 9.87618 15.6529
rtoes -25.1972
lfemur -0.682821 0.609207 -16.2675
ltibia 39.7268
lfoot -23.4085 3.1573
ltoes -14.7179
189
root -2.28327 18.5497 -2.82278 493.607 94.98 502.477
lowerback 7.71168 -0.0393603 -9.14685
upperback 17.287 1.78861 -3.01613
thorax 14.9515 0.476452 1.89173
lowerneck 6.93001 -6.91889 1.5837
upperneck 3.11888 -8.9854 15.9258
head 0.432926 -4.45613 4.63915
rclavicle 2.94201e-014 5.40694e-014
rhumerus -27.4632 -21.513 -82.7385
rradius 38.6487
rwrist 6.38033
rhand -10.6443 18.6253
rfingers 7.12502
rthumb 15.3631 -10.7839
lclavicle 2.94201e-014 5.40694e-014
lhumerus 1.4422 -6.98836 77.6301
lradius 64.4569
lwrist -9.8966
lhand -45.6464 -13.1243
lfingers 7.12502
lthumb -18.4056 16.0249
rfemur -44.3995 -13.1636 14.1697
rtibia 53.5162
rfoot 10.4428 15.1406
rtoes -24.9739
lfemur -0.47372 0.608319 -16.4171
ltibia 39.5909
lfoot -23.5859 3.25764
ltoes -14.84
190
root -2.20785 18.5445 -2.82336 495.427 94.9639 504.194
lowerback 7.50964 -0.0462537 -9.14632
upperback 17.2278 1.7806 -2.98736
thorax 14.9974 0.462845 1.92589
lowerneck 6.84661 -6.82952 1.83574
upperneck 3.21019 -8.84564 15.249
head 0.526172 -4.37874 4.87421
rclavicle 7.15625e-015 6.36111e-015
rhumerus -27.4236 -21.4698 -82.6584
rradius 38.6945
rwrist 6.20459
rhand -10.6233 18.6527
rfingers 7.12502
rthumb 15.3833 -10.755
lclavicle 7.15625e-015 6.36111e-015
lhumerus 1.38293 -6.91117 77.7323
lradius 64.4306
lwrist -9.98342
lhand -45.5998 -13.2196
lfingers 7.12502
lthumb -18.3607 15.9339
rfemur -43.9583 -13.2846 14.2083
rtibia 51.7332
rfoot 11.0495 14.6367
rtoes -24.7743
lfemur -0.228815 0.597292 -16.5893
ltibia 39.4432
lfoot -23.7612 3.27783
ltoes -14.739
191
root -2.13137 18.5397 -2.82482 497.317 94.9504 505.96
lowerback 7.286 -0.0570296 -9.09561
upperback 17.1624 1.77113 -2.98561
thorax 15.0483 0.457772 1.90264
lowerneck 6.79268 -6.74313 2.01866
upperneck 3.28131 -8.724 15.0532
head 0.530288 -4.30788 4.76313
rclavicle -1.19271e-014 -1.27222e-014
rhumerus -27.3766 -21.5159 -82.6064
rradius 38.7148
rwrist 6.14122
rhand -10.5834 18.6863
rfingers 7.12502
rthumb 15.4217 -10.7184
lclavicle -1.19271e-014 -1.27222e-014
lhumerus 1.32821 -6.86907 77.7999
lradius 64.3783
lwrist -10.1134
lhand -45.6293 -13.2565
lfingers 7.12502
lthumb -18.3891 15.8943
rfemur -43.5333 -13.4282 14.2408
rtibia 49.9878
rfoot 11.7037 14.1032
rtoes -24.4997
lfemur 0.00185911 0.59435 -16.7758
ltibia 39.2803
lfoot -23.9434 3.35709
ltoes -14.7059
192
root -2.05556 18.5351 -2.82524 498.978 94.9594 507.497
lowerback 7.06675 -0.0646466 -9.0351
upperback 17.1131 1.76345 -2.94642
thorax 15.1159 0.450618 1.91595
lowerneck 6.63545 -6.65992 2.15294
upperneck 3.40031 -8.62667 14.8324
head 0.571676 -4.24343 4.64694
rclavicle -3.57812e-014 -1.74931e-014
rhumerus -27.2952 -21.4963 -82.5109
rradius 38.7227
rwrist 6.07668
rhand -10.5988 18.7083
rfingers 7.12502
rthumb 15.4069 -10.6976
lclavicle -3.57812e-014 -1.74931e-014
lhumerus 1.31842 -6.75965 77.9285
lradius 64.2962
lwrist -10.2598
lhand -45.6566 -13.1848
lfingers 7.12502
lthumb -18.4154 15.9635
rfemur -43.1033 -13.5259 14.2966
rtibia 48.2821
rfoot 12.4049 13.5256
rtoes -24.1232
lfemur 0.23832 0.604822 -16.9205
ltibia 39.0961
lfoot -24.0837 3.4454
ltoes -14.7455
193
root -1.97797 18.5325 -2.82527 500.973 94.9636 509.366
lowerback 6.8334 -0.0684156 -8.97974
upperback 17.0653 1.76659 -2.93222
thorax 15.1952 0.450544 1.90481
lowerneck 6.5338 -6.57795 2.30052
upperneck 3.47164 -8.51925 14.6438
head 0.588224 -4.17888 4.54406
rclavicle -1.43125e-014 -3.65764e-014
rhumerus -27.2168 -21.5029 -82.4615
rradius 38.748
rwrist 6.0018
rhand -10.6369 18.7137
rfingers 7.12502
rthumb 15.3702 -10.695
lclavicle -1.43125e-014 -3.65764e-014
lhumerus 1.29992 -6.66927 78.0139
lradius 64.2114
lwrist -10.385
lhand -45.6645 -13.1621
lfingers 7.12502
lthumb -18.423 15.9855
rfemur -42.6798 -13.6455 14.3309
rtibia 46.6163
rfoot 13.1126 12.9495
rtoes -23.6892
lfemur 0.489362 0.649017 -17.0895
ltibia 38.8856
lfoot -24.2123 3.51711
ltoes -14.8994
194
root -1.89995 18.5292 -2.82574 503.021 94.9426 511.288
lowerback 6.5989 -0.0760816 -8.92228
upperback 17.0172 1.76341 -2.91083
thorax 15.2753 0.447007 1.90025
lowerneck 6.38621 -6.51103 2.45107
upperneck 3.57519 -8.44034 14.4075
head 0.623306 -4.12524 4.42137
rclavicle 2.14687e-014 3.97569e-014
rhumerus -27.1389 -21.5241 -82.3698
rradius 38.7445
rwrist 5.96297
rhand -10.6239 18.7272
rfingers 7.12502
rthumb 15.3828 -10.6805
lclavicle 2.14687e-014 3.97569e-014
lhumerus 1.28692 -6.55923 78.1551
lradius 64.0956
lwrist -10.504
lhand -45.6983 -13.1597
lfingers 7.12502
lthumb -18.4555 15.9849
rfemur -42.2611 -13.7733 14.3259
rtibia 44.9966
rfoot 13.8387 12.4061
rtoes -23.2905
lfemur 0.751521 0.635297 -17.2945
ltibia 38.6555
lfoot -24.3715 3.54028
ltoes -14.663
195
root -1.82091 18.5269 -2.82466 505.108 94.968 513.241
lowerback 6.35952 -0.068766 -8.84721
upperback 16.9607 1.77891 -2.8939
thorax 15.3453 0.455363 1.88237
lowerneck 6.30349 -6.44487 2.62288
upperneck 3.61788 -8.34773 14.2019
head 0.627013 -4.0706 4.31039
rclavicle -1.74931e-014 -2.54444e-014
rhumerus -27.0891 -21.5557 -82.308
rradius 38.7763
rwrist 5.92579
rhand -10.6431 18.7068
rfingers 7.12502
rthumb 15.3643 -10.7023
lclavicle -1.74931e-014 -2.54444e-014
lhumerus 1.24361 -6.48236 78.2299
lradius 63.9811
lwrist -10.551
lhand -45.7623 -13.1017
lfingers 7.12502
lthumb -18.5171 16.037
rfemur -41.8488 -13.849 14.3412
rtibia 43.4357
rfoot 14.5504 11.801
rtoes -22.7772
lfemur 1.02912 0.678396 -17.4618
ltibia 38.3944
lfoot -24.4971 3.56297
ltoes -14.6234
196
root -1.74048 18.5259 -2.82296 507.096 94.9921 515.097
lowerback 6.11979 -0.0642065 -8.74342
upperback 16.9084 1.79072 -2.87823
thorax 15.421 0.46598 1.84727
lowerneck 6.15345 -6.38443 2.80285
upperneck 3.6949 -8.27284 13.9647
head 0.653373 -4.02045 4.18376
rclavicle -3.26007e-014 -2.38542e-014
rhumerus -27.0192 -21.5998 -82.2474
rradius 38.7792
rwrist 5.84119
rhand -10.6547 18.6797
rfingers 7.12502
rthumb 15.3531 -10.7303
lclavicle -3.26007e-014 -2.38542e-014
lhumerus 1.20972 -6.40714 78.2791
lradius 63.8662
lwrist -10.5528
lhand -45.7611 -13.1041
lfingers 7.12502
lthumb -18.5159 16.0347
rfemur -41.4355 -13.9128 14.3472
rtibia 41.9401
rfoot 15.1504 11.2916
rtoes -22.5957
lfemur 1.3191 0.728582 -17.6264
ltibia 38.1131
lfoot -24.6017 3.62884
ltoes -14.7575
197
root -1.65904 18.5246 -2.81955 509.392 94.976 517.247
lowerback 5.87033 -0.0576005 -8.67729
upperback 16.8452 1.80792 -2.87936
thorax 15.4904 0.476142 1.81446
lowerneck 6.0267 -6.33481 2.9649
upperneck 3.79476 -8.21416 13.7668
head 0.687233 -3.97778 4.07602
rclavicle 2.3059e-014 1.27222e-014
rhumerus -26.99 -21.6906 -82.1919
rradius 38.7912
rwrist 5.82559
rhand -10.6506 18.6608
rfingers 7.12502
rthumb 15.3571 -10.7489
lclavicle 2.3059e-014 1.27222e-014
lhumerus 1.1498 -6.37105 78.318
lradius 63.754
lwrist -10.5214
lhand -45.7879 -13.1099
lfingers 7.12502
lthumb -18.5417 16.0264
rfemur -41.0385 -13.9762 14.2841
rtibia 40.5238
rfoot 15.6927 10.8058
rtoes -22.3998
lfemur 1.60555 0.745643 -17.8373
ltibia 37.8112
lfoot -24.7076 3.64548
ltoes -14.7123
198
root -1.57675 18.5233 -2.81503 511.338 95 519.049
lowerback 5.61505 -0.0586775 -8.57566
upperback 16.7924 1.8125 -2.86116
thorax 15.5771 0.482242 1.78311
lowerneck 5.90955 -6.26734 3.09806
upperneck 3.84481 -8.12805 13.5657
head 0.702611 -3.92592 3.97406
rclavicle 1.59028e-015 -9.54166e-015
rhumerus -26.9371 -21.7679 -82.1315
rradius 38.8146
rwrist 5.83777
rhand -10.653 18.621
rfingers 7.12502
rthumb 15.3547 -10.7889
lclavicle 1.59028e-015 -9.54166e-015
lhumerus 1.11235 -6.31819 78.3225
lradius 63.6055
lwrist -10.4322
lhand -45.8328 -13.0314
lfingers 7.12502
lthumb -18.5848 16.1008
rfemur -40.6435 -14.0107 14.2593
rtibia 39.1837
rfoot 16.2103 10.3509
rtoes -21.9759
lfemur 1.90338 0.807588 -17.9841
ltibia 37.4919
lfoot -24.8013 3.62511
ltoes -14.6555
199
root -1.49248 18.5212 -2.80895 513.682 94.9993 521.237
lowerback 5.35716 -0.0583173 -8.50317
upperback 16.7182 1.81949 -2.86919
thorax 15.6392 0.488858 1.73851
lowerneck 5.79417 -6.20451 3.25162
upperneck 3.90503 -8.04766 13.355
head 0.720319 -3.87608 3.86544
rclavicle 1.03368e-014 2.8625e-014
rhumerus -26.9368 -21.8767 -82.0726
rradius 38.8136
rwrist 5.87599
rhand -10.6706 18.6582
rfingers 7.12502
rthumb 15.3378 -10.753
lclavicle 1.03368e-014 2.8625e-014
lhumerus 1.03232 -6.24358 78.3543
lradius 63.4457
lwrist -10.3867
lhand -45.8345 -12.996
lfingers 7.12502
lthumb -18.5865 16.1361
rfemur -40.2659 -14.0522 14.1791
rtibia 37.9295
rfoot 16.7324 9.95661
rtoes -21.7371
lfemur 2.20102 0.885338 -18.1685
ltibia 37.1594
lfoot -24.875 3.6098
ltoes -14.6689
